<svg xmlns="http://www.w3.org/2000/svg" version="1.1" xmlns:xlink="http://www.w3.org/1999/xlink" width="512" height="512" x="0" y="0" viewBox="0 0 50 50" style="enable-background:new 0 0 512 512" xml:space="preserve"><g><path d="m43.1 43.04-2.8-24a4 4 0 0 0-3.97-3.54H34v-4c0-4.96-4.04-9-9-9s-9 4.04-9 9v4h-2.33c-2.03 0-3.74 1.52-3.97 3.54l-2.8 24a4.003 4.003 0 0 0 3.98 4.46h28.26a4.003 4.003 0 0 0 3.98-4.46zM18 11.5c0-3.86 3.14-7 7-7s7 3.14 7 7v4H18v-4zm16 9c0 2.4-.94 4.67-2.64 6.37S27.4 29.51 25 29.51c-4.96 0-9-4.04-9-9v-1c0-.55.45-1 1-1s1 .45 1 1v1c0 3.86 3.14 7 7 7 1.87 0 3.63-.73 4.95-2.05S32 22.38 32 20.51v-1c0-.55.45-1 1-1s1 .45 1 1v1z" fill="#000000" opacity="1" data-original="#000000"></path></g></svg>